<svg id="svg" version="1.1" xmlns="http://www.w3.org/2000/svg" xmlns:xlink="http://www.w3.org/1999/xlink" width="400" height="1740.3508771929826" viewBox="0, 0, 400,1740.3508771929826"><g id="svgg"><path id="path0" d="M211.569 9.042 C 210.905 10.056,210.645 11.231,210.966 11.765 C 211.386 12.463,211.216 12.449,210.303 11.708 C 209.241 10.847,209.074 10.877,209.074 11.932 C 209.074 12.604,208.748 12.951,208.348 12.704 C 207.949 12.457,207.623 12.765,207.623 13.387 C 207.623 14.010,207.132 14.519,206.534 14.519 C 205.935 14.519,205.526 14.927,205.626 15.426 C 205.726 15.926,205.375 16.244,204.845 16.134 C 204.166 15.993,204.031 16.399,204.385 17.514 C 204.790 18.791,204.654 19.005,203.673 18.629 C 202.445 18.158,198.358 21.489,198.730 22.659 C 198.829 22.973,198.440 23.230,197.863 23.230 C 197.287 23.230,196.359 23.882,195.802 24.678 C 195.244 25.474,194.491 25.888,194.127 25.597 C 193.764 25.307,193.875 25.538,194.374 26.110 C 196.039 28.019,195.275 31.694,193.569 29.987 C 193.292 29.711,192.339 29.383,191.451 29.259 C 190.188 29.083,190.072 29.186,190.920 29.732 C 191.842 30.326,191.853 30.569,190.995 31.367 C 190.241 32.068,190.116 32.076,190.499 31.397 C 190.781 30.898,190.720 30.490,190.363 30.490 C 189.206 30.490,188.743 31.425,189.468 32.299 C 189.957 32.887,189.842 33.152,189.099 33.152 C 188.507 33.152,188.022 32.860,188.022 32.504 C 188.022 32.148,187.679 32.068,187.261 32.327 C 186.740 32.648,186.768 33.121,187.349 33.821 C 188.125 34.756,187.790 35.150,186.400 34.936 C 186.107 34.890,185.859 94.189,185.850 166.711 L 185.833 298.569 184.275 299.920 C 183.370 300.705,183.111 301.270,183.656 301.270 C 184.173 301.270,184.990 300.730,185.472 300.071 C 186.632 298.485,187.792 299.298,188.415 302.133 C 188.773 303.766,188.614 304.656,187.863 305.210 C 187.282 305.639,186.415 306.724,185.937 307.623 C 185.458 308.521,184.778 309.256,184.424 309.256 C 183.349 309.256,177.858 315.046,177.858 316.181 C 177.858 317.448,177.924 317.442,175.107 316.460 C 173.508 315.902,172.972 315.330,173.239 314.463 C 173.480 313.678,173.303 313.761,172.737 314.701 C 172.256 315.499,171.169 316.717,170.323 317.407 C 169.476 318.097,169.090 318.668,169.464 318.677 C 169.838 318.686,169.240 319.637,168.134 320.792 C 166.866 322.115,166.414 323.069,166.910 323.375 C 167.345 323.644,167.695 323.356,167.695 322.729 C 167.695 322.106,168.041 321.597,168.464 321.597 C 168.887 321.597,169.033 321.920,168.789 322.315 C 168.535 322.726,168.826 322.848,169.472 322.600 C 170.259 322.298,170.599 322.606,170.599 323.620 C 170.599 325.514,168.611 326.246,167.226 324.862 C 165.815 323.450,165.071 323.452,166.243 324.864 C 167.087 325.881,166.739 326.281,165.247 326.009 C 164.898 325.945,164.802 326.386,165.033 326.989 C 165.265 327.591,165.091 328.308,164.647 328.583 C 164.115 328.912,164.045 328.735,164.441 328.061 C 164.779 327.486,164.392 327.609,163.554 328.343 C 162.736 329.059,161.878 330.815,161.645 332.245 C 161.413 333.674,160.638 335.513,159.922 336.331 C 159.206 337.149,159.029 337.579,159.528 337.287 C 160.056 336.979,160.466 337.154,160.508 337.707 C 160.548 338.229,160.793 337.945,161.052 337.075 C 162.572 331.982,165.171 340.043,163.913 345.943 L 163.226 349.162 161.197 348.113 C 158.848 346.898,157.827 347.404,159.417 348.995 C 160.387 349.965,160.343 350.200,159.020 351.127 C 157.409 352.256,156.975 354.379,158.417 354.083 C 160.494 353.658,162.068 367.758,160.425 372.077 C 159.882 373.507,159.360 373.885,158.429 373.523 C 156.303 372.695,155.709 372.738,155.905 373.704 C 156.009 374.215,155.600 374.821,154.998 375.052 C 153.565 375.602,153.586 377.945,155.029 378.498 C 155.785 378.788,155.988 378.635,155.648 378.032 C 155.292 377.401,155.383 377.354,155.953 377.875 C 157.152 378.970,158.504 389.294,157.940 393.053 C 157.496 396.013,154.709 400.844,154.652 398.752 C 154.639 398.266,154.140 398.055,153.543 398.284 C 152.947 398.513,152.639 398.993,152.860 399.350 C 153.081 399.708,152.916 400.000,152.493 400.000 C 152.070 400.000,151.686 399.265,151.640 398.367 C 151.573 397.073,151.485 397.006,151.216 398.046 C 151.028 398.768,151.120 399.911,151.419 400.587 C 151.717 401.262,152.018 401.978,152.087 402.178 C 152.156 402.377,152.388 403.031,152.602 403.630 C 156.478 414.456,154.356 427.220,149.422 422.755 C 148.174 421.625,148.094 421.650,148.094 423.161 C 148.094 424.208,148.411 424.608,149.002 424.308 C 149.501 424.056,149.338 424.317,148.639 424.890 C 147.158 426.104,146.993 427.340,148.257 427.761 C 150.231 428.420,151.895 444.880,150.291 447.879 C 149.440 449.469,146.151 449.307,145.020 447.620 C 144.692 447.131,144.483 447.313,144.476 448.094 C 144.470 448.793,144.873 449.375,145.372 449.388 C 145.926 449.402,145.785 449.786,145.009 450.375 C 143.452 451.557,143.352 452.995,144.828 452.995 C 145.426 452.995,145.942 453.240,145.972 453.539 C 146.003 453.838,146.122 455.064,146.237 456.261 C 146.351 457.459,146.698 460.470,147.008 462.953 C 147.692 468.443,146.469 473.733,144.388 474.277 C 143.520 474.505,143.013 474.261,143.013 473.616 C 143.013 473.055,142.633 472.677,142.170 472.777 C 141.706 472.877,141.085 472.142,140.790 471.143 C 140.344 469.635,140.241 469.839,140.181 472.354 C 140.094 476.009,140.696 477.813,141.818 477.256 C 142.276 477.029,142.016 477.358,141.241 477.986 C 140.443 478.633,140.225 479.129,140.739 479.129 C 141.238 479.129,141.445 479.456,141.198 479.855 C 140.951 480.254,141.063 480.581,141.447 480.581 C 143.825 480.581,144.403 496.926,142.105 499.223 C 141.322 500.006,140.835 500.155,140.835 499.611 C 140.835 499.126,140.508 498.730,140.109 498.730 C 139.710 498.730,139.383 499.274,139.383 499.940 C 139.383 500.605,139.181 500.947,138.934 500.700 C 138.260 500.027,136.479 502.072,136.479 503.517 C 136.479 504.211,136.681 504.577,136.929 504.330 C 138.869 502.389,140.699 516.742,139.381 523.562 C 138.884 526.130,136.749 525.650,135.483 522.686 C 135.228 522.087,135.178 522.447,135.373 523.486 C 135.567 524.524,135.488 525.613,135.195 525.906 C 134.903 526.198,134.649 526.818,134.631 527.284 C 134.613 527.750,134.205 528.049,133.724 527.949 C 132.218 527.637,132.772 529.756,134.301 530.156 C 136.499 530.730,136.437 536.479,134.233 536.479 C 133.324 536.479,132.561 537.062,132.334 537.931 C 132.125 538.730,131.747 539.410,131.494 539.443 C 128.565 539.829,127.772 539.714,127.443 538.859 C 127.232 538.307,127.300 537.984,127.595 538.141 C 127.889 538.298,128.759 537.768,129.527 536.964 C 130.682 535.754,130.713 535.582,129.709 535.967 C 129.017 536.233,128.494 536.082,128.494 535.618 C 128.494 535.155,127.920 535.322,127.166 536.004 C 126.436 536.664,125.525 537.205,125.143 537.205 C 124.760 537.205,124.398 537.858,124.338 538.657 C 124.277 539.456,124.504 540.109,124.841 540.109 C 126.123 540.109,124.656 542.898,123.163 543.299 C 120.691 543.962,118.202 543.808,118.688 543.021 C 118.944 542.607,118.647 542.490,117.983 542.744 C 117.217 543.038,116.989 543.670,117.297 544.641 C 117.838 546.346,116.614 547.341,113.955 547.357 C 112.818 547.364,111.363 548.232,110.128 549.639 C 108.411 551.596,107.787 551.853,105.611 551.499 C 103.469 551.152,103.085 551.299,103.085 552.470 C 103.085 554.302,100.512 555.601,97.915 555.082 C 96.241 554.747,95.826 554.920,95.826 555.953 C 95.826 557.979,94.320 558.984,91.282 558.984 C 89.246 558.984,88.623 558.736,89.003 558.076 C 89.307 557.548,89.249 557.423,88.864 557.776 C 87.760 558.790,88.006 616.367,89.111 615.454 C 89.774 614.906,90.018 615.032,90.018 615.925 C 90.018 616.596,90.308 616.967,90.662 616.748 C 91.016 616.529,91.709 616.836,92.203 617.431 C 93.407 618.882,199.324 619.088,199.807 617.640 C 200.033 616.962,200.217 616.962,200.636 617.640 C 200.932 618.120,200.829 618.512,200.406 618.512 C 199.386 618.512,199.345 638.620,200.364 638.959 C 200.764 639.093,176.730 639.114,146.955 639.006 C 105.905 638.858,92.946 639.016,93.342 639.657 C 93.716 640.262,93.300 640.361,91.880 640.004 C 90.594 639.681,90.059 639.769,90.358 640.253 C 90.623 640.682,90.381 640.831,89.787 640.603 C 89.218 640.385,88.565 640.699,88.334 641.301 C 88.066 641.998,88.251 642.265,88.845 642.037 C 89.361 641.839,89.776 642.193,89.776 642.831 C 89.776 643.464,89.422 643.847,88.990 643.681 C 88.437 643.469,88.203 649.467,88.203 663.907 C 88.203 677.397,88.452 684.286,88.929 684.002 C 89.328 683.764,89.252 684.067,88.760 684.675 C 85.995 688.093,87.686 688.306,116.904 688.230 L 144.102 688.160 144.102 699.095 L 144.102 710.030 117.967 709.981 C 103.593 709.953,91.273 709.943,90.588 709.956 C 89.903 709.970,88.973 710.675,88.519 711.521 C 87.873 712.729,87.891 712.940,88.606 712.498 C 89.189 712.138,89.334 712.231,89.010 712.755 C 88.175 714.106,88.096 758.546,88.929 758.049 C 89.328 757.811,89.236 758.134,88.723 758.767 C 87.953 759.718,87.994 760.123,88.956 761.085 C 90.300 762.429,91.192 762.561,91.840 761.513 C 92.091 761.107,92.606 760.966,92.984 761.200 C 93.362 761.434,93.476 761.941,93.238 762.327 C 92.960 762.776,102.259 762.954,119.001 762.821 C 133.410 762.707,144.870 762.722,144.469 762.855 C 143.417 763.204,143.514 779.158,144.574 780.219 C 145.703 781.347,94.645 781.528,93.286 780.400 C 92.317 779.596,88.588 780.580,88.543 781.652 C 88.085 792.549,88.385 830.512,88.929 830.576 C 89.328 830.623,89.900 830.623,90.200 830.576 C 90.499 830.529,90.744 831.020,90.744 831.668 C 90.744 832.632,90.941 832.682,91.833 831.942 C 92.585 831.318,92.922 831.290,92.922 831.853 C 92.922 832.443,99.976 832.622,118.512 832.501 L 144.102 832.334 119.056 831.942 L 94.011 831.550 119.315 831.383 C 142.134 831.232,144.577 831.329,144.179 832.364 C 143.937 832.996,143.739 838.238,143.739 844.014 L 143.739 854.515 116.469 854.406 C 101.471 854.346,89.039 854.458,88.842 854.655 C 87.940 855.556,88.209 900.780,89.111 900.031 C 89.776 899.479,90.018 899.604,90.018 900.498 C 90.018 901.170,90.308 901.540,90.662 901.321 C 91.016 901.102,91.709 901.410,92.203 902.004 C 93.407 903.456,199.324 903.662,199.807 902.214 C 200.033 901.535,200.217 901.535,200.636 902.214 C 200.932 902.693,200.829 903.085,200.406 903.085 C 199.386 903.085,199.345 923.194,200.364 923.533 C 200.764 923.666,176.730 923.687,146.955 923.580 C 105.905 923.432,92.946 923.589,93.342 924.230 C 93.716 924.835,93.300 924.934,91.880 924.578 C 90.594 924.255,90.059 924.342,90.358 924.826 C 90.623 925.256,90.381 925.405,89.787 925.177 C 89.218 924.959,88.565 925.273,88.334 925.874 C 88.066 926.572,88.251 926.838,88.845 926.611 C 89.361 926.412,89.776 926.766,89.776 927.405 C 89.776 928.038,89.422 928.420,88.990 928.254 C 88.101 927.913,88.118 968.560,89.007 969.999 C 89.334 970.528,89.190 970.622,88.606 970.260 C 87.891 969.819,87.873 970.029,88.519 971.237 C 88.973 972.084,89.903 972.788,90.588 972.802 C 91.273 972.816,103.593 972.805,117.967 972.778 L 144.102 972.729 144.102 983.664 L 144.102 994.599 116.904 994.528 C 87.686 994.452,85.995 994.666,88.760 998.083 C 89.252 998.692,89.328 998.995,88.929 998.757 C 88.452 998.472,88.203 1005.362,88.203 1018.852 C 88.203 1033.291,88.437 1039.290,88.990 1039.078 C 89.422 1038.912,89.776 1039.294,89.776 1039.927 C 89.776 1040.566,89.361 1040.920,88.845 1040.722 C 88.251 1040.494,88.066 1040.760,88.334 1041.458 C 88.565 1042.060,89.218 1042.373,89.787 1042.155 C 90.381 1041.927,90.623 1042.076,90.358 1042.506 C 90.059 1042.990,90.594 1043.077,91.880 1042.754 C 93.315 1042.394,93.718 1042.494,93.334 1043.115 C 92.929 1043.770,98.970 1043.924,118.929 1043.765 C 133.298 1043.651,144.741 1043.751,144.357 1043.987 C 143.947 1044.240,143.751 1048.583,143.881 1054.514 L 144.102 1064.610 118.771 1064.410 C 96.879 1064.237,93.274 1064.360,92.215 1065.319 C 91.541 1065.929,90.771 1066.209,90.504 1065.942 C 90.237 1065.675,90.018 1066.041,90.018 1066.756 C 90.018 1067.712,89.779 1067.856,89.111 1067.301 C 88.209 1066.552,87.940 1111.776,88.842 1112.677 C 89.039 1112.874,101.471 1112.986,116.469 1112.926 L 143.739 1112.817 143.739 1123.318 C 143.739 1129.094,143.937 1134.336,144.179 1134.968 C 144.577 1136.003,142.134 1136.100,119.315 1135.949 L 94.011 1135.782 119.056 1135.390 L 144.102 1134.999 118.512 1134.831 C 99.976 1134.710,92.922 1134.889,92.922 1135.479 C 92.922 1136.042,92.585 1136.015,91.833 1135.390 C 90.941 1134.650,90.744 1134.700,90.744 1135.664 C 90.744 1136.312,90.499 1136.803,90.200 1136.756 C 89.900 1136.709,89.328 1136.709,88.929 1136.756 C 88.385 1136.821,88.085 1174.783,88.543 1185.680 C 88.587 1186.726,92.375 1187.770,93.185 1186.960 C 93.693 1186.452,111.466 1186.226,147.695 1186.264 C 177.261 1186.296,201.044 1186.486,200.544 1186.688 C 199.410 1187.146,199.238 1204.102,200.364 1204.477 C 200.764 1204.610,176.730 1204.631,146.955 1204.524 C 112.909 1204.401,92.978 1204.584,93.246 1205.018 C 93.480 1205.397,93.362 1205.899,92.984 1206.132 C 92.606 1206.366,92.091 1206.225,91.840 1205.819 C 91.192 1204.771,90.300 1204.904,88.956 1206.248 C 87.994 1207.210,87.953 1207.615,88.723 1208.565 C 89.236 1209.198,89.328 1209.521,88.929 1209.283 C 88.096 1208.786,88.175 1253.227,89.010 1254.577 C 89.334 1255.102,89.189 1255.194,88.606 1254.834 C 87.891 1254.392,87.873 1254.603,88.519 1255.811 C 88.973 1256.657,89.903 1257.362,90.588 1257.376 C 91.273 1257.390,103.593 1257.379,117.967 1257.352 L 144.102 1257.302 144.102 1268.237 L 144.102 1279.172 116.904 1279.102 C 87.686 1279.026,85.995 1279.240,88.760 1282.657 C 89.252 1283.265,89.328 1283.568,88.929 1283.330 C 88.452 1283.046,88.203 1289.943,88.203 1303.448 C 88.203 1316.954,88.452 1323.851,88.929 1323.566 C 89.328 1323.328,89.236 1323.651,88.723 1324.285 C 87.953 1325.235,87.994 1325.640,88.956 1326.602 C 90.300 1327.946,91.192 1328.078,91.840 1327.030 C 92.091 1326.624,92.606 1326.483,92.984 1326.717 C 93.362 1326.951,93.476 1327.458,93.238 1327.844 C 92.960 1328.293,102.234 1328.471,118.929 1328.339 C 133.298 1328.224,144.741 1328.324,144.357 1328.561 C 143.947 1328.814,143.751 1333.157,143.881 1339.087 L 144.102 1349.183 118.771 1348.983 C 96.879 1348.811,93.274 1348.934,92.215 1349.892 C 91.541 1350.502,90.771 1350.783,90.504 1350.516 C 90.237 1350.249,90.018 1350.615,90.018 1351.329 C 90.018 1352.286,89.779 1352.430,89.111 1351.875 C 88.388 1351.275,88.203 1355.692,88.203 1373.564 C 88.203 1387.985,88.463 1396.038,88.929 1396.093 C 89.328 1396.140,89.900 1396.141,90.200 1396.093 C 90.499 1396.046,90.744 1396.537,90.744 1397.185 C 90.744 1398.150,90.941 1398.199,91.833 1397.459 C 92.585 1396.835,92.922 1396.807,92.922 1397.370 C 92.922 1397.961,99.976 1398.139,118.512 1398.018 L 144.102 1397.851 119.056 1397.459 L 94.011 1397.067 119.315 1396.900 C 142.134 1396.750,144.577 1396.846,144.179 1397.882 C 143.937 1398.513,143.739 1403.755,143.739 1409.531 L 143.739 1420.032 116.469 1419.923 C 101.471 1419.863,89.017 1419.997,88.794 1420.219 C 88.572 1420.442,88.447 1430.440,88.517 1442.436 L 88.645 1464.247 48.635 1464.247 C 24.127 1464.247,8.788 1464.509,9.043 1464.923 C 9.273 1465.294,9.152 1465.790,8.773 1466.023 C 8.395 1466.257,7.881 1466.116,7.630 1465.711 C 6.982 1464.662,6.089 1464.795,4.745 1466.139 C 3.783 1467.101,3.743 1467.506,4.512 1468.456 C 5.025 1469.089,5.118 1469.412,4.719 1469.174 C 4.241 1468.889,3.993 1477.020,3.993 1492.991 C 3.993 1506.329,4.238 1517.241,4.537 1517.241 C 4.837 1517.241,5.082 1517.587,5.082 1518.010 C 5.082 1518.433,4.759 1518.579,4.364 1518.335 C 3.956 1518.084,3.829 1518.367,4.068 1518.991 C 4.659 1520.531,7.122 1521.163,8.400 1520.102 C 9.281 1519.371,9.390 1519.424,9.013 1520.405 C 8.591 1521.505,13.904 1521.597,77.902 1521.597 C 131.216 1521.597,147.315 1521.396,147.538 1520.725 C 147.764 1520.047,147.948 1520.047,148.367 1520.725 C 148.664 1521.205,148.560 1521.597,148.137 1521.597 C 147.090 1521.597,147.051 1685.436,148.098 1685.783 C 148.499 1685.917,136.222 1685.933,120.816 1685.819 C 99.434 1685.662,92.931 1685.815,93.335 1686.469 C 93.717 1687.088,93.313 1687.188,91.880 1686.828 C 90.594 1686.505,90.059 1686.593,90.358 1687.077 C 90.623 1687.506,90.381 1687.655,89.787 1687.427 C 89.218 1687.209,88.565 1687.523,88.334 1688.125 C 88.066 1688.822,88.251 1689.089,88.845 1688.861 C 89.361 1688.663,89.776 1689.017,89.776 1689.655 C 89.776 1690.288,89.422 1690.671,88.990 1690.505 C 88.436 1690.292,88.203 1696.823,88.203 1712.615 C 88.203 1724.942,88.448 1735.027,88.748 1735.027 C 89.047 1735.027,89.292 1735.373,89.292 1735.796 C 89.292 1736.219,88.969 1736.365,88.575 1736.121 C 88.167 1735.869,88.039 1736.153,88.279 1736.777 C 88.870 1738.317,91.333 1738.949,92.610 1737.888 C 93.492 1737.157,93.600 1737.210,93.224 1738.191 C 92.801 1739.293,101.137 1739.383,203.630 1739.383 C 303.185 1739.383,314.449 1739.269,314.064 1738.264 C 313.734 1737.404,313.907 1737.298,314.815 1737.806 C 316.349 1738.665,318.477 1738.089,319.023 1736.668 C 319.369 1735.766,319.250 1735.716,318.412 1736.412 C 317.601 1737.084,317.250 1737.067,316.827 1736.333 C 316.527 1735.814,316.537 1735.620,316.848 1735.900 C 317.954 1736.896,319.656 1734.373,318.676 1733.192 C 317.688 1732.001,318.016 1693.660,319.034 1691.280 C 319.438 1690.336,319.307 1690.107,318.532 1690.404 C 317.889 1690.651,317.483 1690.361,317.483 1689.655 C 317.483 1689.017,317.898 1688.663,318.414 1688.861 C 319.008 1689.089,319.193 1688.822,318.926 1688.125 C 318.695 1687.523,318.041 1687.209,317.473 1687.427 C 316.901 1687.647,316.638 1687.504,316.884 1687.106 C 317.127 1686.711,317.000 1686.388,316.601 1686.388 C 316.202 1686.388,315.670 1686.720,315.419 1687.126 C 315.168 1687.532,314.654 1687.673,314.276 1687.439 C 313.897 1687.205,313.783 1686.699,314.021 1686.313 C 314.297 1685.866,304.311 1685.687,286.443 1685.819 C 271.037 1685.933,258.760 1685.917,259.162 1685.783 C 260.301 1685.406,260.159 1521.807,259.019 1521.428 C 258.341 1521.201,258.341 1521.017,259.019 1520.598 C 259.499 1520.302,259.891 1520.405,259.891 1520.828 C 259.891 1521.660,396.699 1521.983,398.852 1521.156 C 399.871 1520.765,400.000 1517.618,400.000 1493.164 C 400.000 1474.982,399.753 1465.766,399.274 1466.062 C 398.875 1466.308,398.548 1466.001,398.548 1465.379 C 398.548 1464.367,394.291 1464.247,358.531 1464.247 L 318.515 1464.247 319.059 1011.562 C 319.521 627.406,319.452 558.899,318.604 559.017 C 315.116 559.502,313.139 558.882,311.995 556.947 C 310.977 555.223,310.411 554.954,308.315 555.199 C 306.325 555.431,305.549 555.122,304.375 553.629 C 303.375 552.358,302.405 551.869,301.303 552.081 C 300.269 552.280,299.066 551.764,297.941 550.638 C 296.977 549.675,295.067 548.676,293.695 548.418 C 292.324 548.161,290.640 547.330,289.953 546.571 C 289.266 545.812,287.760 545.191,286.606 545.191 C 285.336 545.191,283.791 544.474,282.693 543.376 C 281.694 542.377,280.361 541.561,279.729 541.561 C 278.117 541.561,270.751 537.247,270.284 536.029 C 269.514 534.024,271.735 525.394,273.113 525.034 C 273.826 524.847,274.410 524.101,274.410 523.376 C 274.410 521.746,271.565 520.691,270.745 522.017 C 268.115 526.273,265.928 515.141,267.525 505.626 C 267.659 504.828,267.793 503.404,267.823 502.463 C 267.863 501.185,268.178 500.868,269.068 501.209 C 270.072 501.594,270.113 501.489,269.328 500.544 C 268.544 499.600,268.585 499.495,269.589 499.880 C 270.408 500.194,270.780 499.948,270.780 499.093 C 270.780 498.289,270.398 497.995,269.700 498.263 C 269.090 498.497,268.695 498.308,268.793 497.829 C 268.888 497.362,268.247 496.966,267.368 496.948 C 264.070 496.880,262.635 492.234,263.637 484.874 C 264.558 478.109,264.805 477.536,266.429 478.405 C 267.261 478.850,267.951 478.870,268.207 478.455 C 268.600 477.819,267.374 476.624,266.304 476.599 C 266.038 476.593,265.547 476.291,265.215 475.927 C 264.857 475.536,265.024 475.506,265.622 475.854 C 266.411 476.311,266.555 476.019,266.272 474.540 C 266.072 473.495,266.188 472.812,266.530 473.023 C 266.871 473.234,267.128 471.999,267.100 470.279 C 267.062 467.989,266.897 467.540,266.482 468.603 C 266.170 469.401,265.540 470.095,265.081 470.145 C 263.305 470.338,263.209 470.541,264.610 471.135 C 265.775 471.630,265.598 471.727,263.712 471.629 C 259.038 471.385,258.537 460.447,262.714 449.862 C 264.168 446.178,263.808 442.600,262.128 444.038 C 260.925 445.068,260.876 445.371,261.765 446.261 C 262.331 446.827,262.795 447.496,262.795 447.747 C 262.795 447.998,262.403 447.811,261.924 447.332 C 261.445 446.853,260.323 446.461,259.432 446.461 C 258.515 446.461,257.648 445.909,257.436 445.191 C 256.428 441.782,256.268 437.343,257.017 433.570 C 257.473 431.277,257.870 428.991,257.900 428.491 C 257.940 427.826,258.282 427.876,259.165 428.675 C 260.210 429.621,260.375 429.625,260.375 428.710 C 260.375 428.127,260.068 427.840,259.692 428.072 C 259.291 428.320,259.219 427.835,259.516 426.898 C 259.871 425.781,259.621 424.975,258.687 424.212 C 257.952 423.613,257.759 423.330,258.258 423.582 C 258.826 423.870,259.165 423.529,259.165 422.668 C 259.165 420.756,258.471 420.259,256.942 421.077 C 255.450 421.875,253.419 420.329,253.267 418.278 C 252.881 413.081,253.807 405.808,254.854 405.808 C 256.089 405.808,256.624 406.160,256.635 406.980 C 256.641 407.425,257.078 408.309,257.605 408.944 C 258.133 409.580,258.325 410.522,258.032 411.039 C 257.600 411.801,257.688 411.804,258.496 411.053 C 259.290 410.315,259.314 409.842,258.614 408.722 C 258.132 407.949,257.922 406.834,258.149 406.243 C 258.385 405.628,257.955 404.792,257.143 404.285 C 256.057 403.607,255.804 402.824,256.058 400.938 C 256.240 399.585,256.145 397.921,255.847 397.242 C 255.549 396.563,255.361 395.748,255.431 395.432 C 255.500 395.115,254.980 395.153,254.275 395.515 C 251.244 397.075,249.754 395.184,249.739 389.756 C 249.720 382.768,250.517 378.795,252.018 378.402 C 253.645 377.977,253.780 376.361,252.237 375.769 C 251.391 375.444,251.294 375.009,251.840 373.988 C 252.345 373.044,252.300 372.356,251.690 371.708 C 251.009 370.984,251.016 370.707,251.724 370.448 C 252.223 370.265,252.632 369.662,252.632 369.109 C 252.632 368.514,252.188 368.274,251.543 368.522 C 250.944 368.751,250.454 369.556,250.454 370.309 C 250.454 373.169,247.239 371.485,246.713 368.349 C 245.836 363.123,247.264 354.265,248.984 354.265 C 250.105 354.265,249.877 352.388,248.630 351.354 C 247.953 350.792,247.777 350.132,248.171 349.631 C 250.166 347.101,248.092 342.062,246.062 344.508 C 244.994 345.794,244.198 345.849,244.053 344.646 C 243.993 344.147,243.738 342.675,243.486 341.375 C 242.919 338.446,243.801 330.875,244.649 331.399 C 245.704 332.051,246.319 330.234,245.347 329.338 C 244.645 328.689,244.555 328.709,244.960 329.425 C 246.162 331.548,240.474 329.832,238.007 327.327 C 232.177 321.407,232.020 321.135,233.030 318.694 C 233.861 316.688,235.804 315.965,235.413 317.808 C 235.212 318.756,237.211 319.564,237.720 318.741 C 238.204 317.958,234.659 315.595,233.798 316.127 C 233.444 316.346,233.017 316.114,232.848 315.613 C 232.608 314.899,232.277 314.918,231.329 315.701 C 230.254 316.588,230.027 316.444,229.325 314.431 C 228.889 313.182,228.068 312.160,227.500 312.160 C 226.931 312.160,226.099 311.353,225.650 310.368 C 225.201 309.382,224.574 308.736,224.257 308.932 C 223.940 309.128,223.253 308.775,222.730 308.149 C 222.207 307.522,220.983 306.225,220.012 305.267 C 218.459 303.734,218.349 303.295,219.104 301.637 C 219.757 300.204,219.964 265.749,219.964 158.457 C 219.964 54.536,220.183 16.558,220.791 14.875 C 222.091 11.280,219.045 5.094,217.221 7.623 C 216.500 8.622,214.882 8.873,214.882 7.985 C 214.882 6.588,212.727 7.276,211.569 9.042 M220.706 299.611 C 220.752 301.258,223.278 303.529,223.392 302.026 C 223.453 301.213,222.870 300.208,222.096 299.794 C 221.323 299.380,220.697 299.298,220.706 299.611 M224.319 303.247 C 224.319 304.160,226.394 305.971,226.882 305.483 C 227.075 305.291,226.577 304.540,225.776 303.815 C 224.975 303.090,224.319 302.835,224.319 303.247 M177.546 307.748 C 176.160 309.280,176.680 309.750,178.491 308.603 C 179.039 308.256,179.357 307.582,179.199 307.106 C 179.012 306.547,178.427 306.774,177.546 307.748 M227.223 306.959 C 227.223 307.478,226.852 307.660,226.385 307.372 C 225.862 307.048,225.744 307.173,226.072 307.704 C 226.361 308.171,226.842 308.403,227.140 308.218 C 227.439 308.034,228.255 308.851,228.954 310.034 C 229.658 311.226,230.575 311.968,231.012 311.699 C 231.544 311.370,231.458 310.954,230.748 310.416 C 230.170 309.977,229.141 308.811,228.460 307.824 C 227.780 306.837,227.223 306.448,227.223 306.959 M174.229 320.510 C 174.229 321.061,173.852 321.745,173.391 322.029 C 172.840 322.370,172.734 322.198,173.081 321.528 C 173.372 320.967,173.154 321.063,172.597 321.741 C 171.651 322.891,171.495 322.871,170.277 321.448 C 169.165 320.150,169.146 319.989,170.147 320.374 C 170.795 320.622,171.325 320.579,171.325 320.277 C 171.325 319.975,171.978 319.679,172.777 319.619 C 173.580 319.558,174.229 319.957,174.229 320.510 M242.651 324.935 C 243.351 325.759,243.745 326.612,243.527 326.829 C 243.310 327.047,243.643 327.422,244.269 327.662 C 245.741 328.226,244.621 325.953,242.689 324.454 C 241.435 323.480,241.433 323.500,242.651 324.935 M247.187 338.294 C 246.897 338.763,247.024 339.510,247.468 339.954 C 247.912 340.399,248.271 341.105,248.265 341.525 C 248.259 341.944,247.937 341.797,247.550 341.198 C 246.955 340.277,246.844 340.315,246.835 341.440 C 246.819 343.324,248.588 342.523,248.882 340.513 C 249.168 338.558,247.983 337.006,247.187 338.294 M155.112 362.734 C 154.335 363.511,154.555 365.285,155.366 364.784 C 155.772 364.533,155.933 364.052,155.724 363.714 C 155.516 363.377,155.755 362.935,156.257 362.733 C 156.761 362.529,156.817 362.339,156.382 362.308 C 155.950 362.276,155.378 362.468,155.112 362.734 M250.824 362.965 C 250.573 363.370,250.796 363.707,251.318 363.713 C 252.088 363.722,252.084 363.842,251.300 364.338 C 250.521 364.833,250.556 365.038,251.482 365.393 C 252.284 365.701,252.632 365.415,252.632 364.448 C 252.632 362.833,251.486 361.893,250.824 362.965 M252.316 380.323 C 252.095 380.681,252.449 381.178,253.103 381.429 C 254.516 381.972,255.142 381.524,254.476 380.448 C 253.893 379.504,252.859 379.444,252.316 380.323 M150.998 390.883 C 150.998 391.857,151.266 392.820,151.593 393.022 C 151.920 393.224,152.046 392.427,151.873 391.250 C 151.493 388.656,150.998 388.448,150.998 390.883 M255.326 390.566 C 255.535 391.367,255.295 392.518,254.792 393.124 C 254.029 394.044,254.075 394.150,255.070 393.768 C 256.322 393.288,256.801 389.111,255.603 389.111 C 255.241 389.111,255.117 389.766,255.326 390.566 M258.943 417.241 C 258.727 418.339,258.852 419.548,259.221 419.927 C 259.634 420.352,259.891 419.587,259.891 417.931 C 259.891 414.752,259.489 414.459,258.943 417.241 M147.368 418.028 C 147.368 419.292,147.701 420.327,148.108 420.327 C 148.547 420.327,148.653 419.515,148.369 418.330 C 147.685 415.480,147.368 415.384,147.368 418.028 M145.522 430.541 C 145.249 430.982,145.347 431.663,145.738 432.054 C 146.203 432.519,146.598 432.379,146.877 431.651 C 147.385 430.328,146.236 429.387,145.522 430.541 M260.928 433.381 C 260.928 434.128,261.157 434.598,261.437 434.425 C 261.716 434.252,262.110 434.521,262.313 435.023 C 262.549 435.609,262.701 435.512,262.738 434.753 C 262.769 434.103,262.375 433.223,261.862 432.797 C 261.158 432.213,260.928 432.356,260.928 433.381 M143.739 443.436 C 143.739 444.701,144.072 445.735,144.478 445.735 C 144.918 445.735,145.024 444.924,144.739 443.739 C 144.056 440.889,143.739 440.793,143.739 443.436 M262.402 452.317 C 262.139 452.743,262.120 453.287,262.359 453.527 C 262.599 453.766,262.795 453.562,262.795 453.073 C 262.795 452.583,263.127 452.388,263.533 452.639 C 263.938 452.890,264.051 453.449,263.784 453.883 C 263.486 454.364,263.636 454.461,264.170 454.131 C 264.839 453.718,264.844 453.351,264.193 452.567 C 263.174 451.338,263.020 451.317,262.402 452.317 M264.475 456.443 C 264.467 457.142,264.903 458.358,265.443 459.145 C 265.983 459.933,266.425 460.197,266.425 459.733 C 266.425 459.268,266.085 458.678,265.669 458.421 C 265.254 458.164,265.112 457.328,265.355 456.563 C 265.598 455.798,265.502 455.172,265.143 455.172 C 264.783 455.172,264.482 455.744,264.475 456.443 M141.904 458.741 C 142.147 459.506,142.006 460.342,141.590 460.599 C 141.175 460.856,140.837 461.618,140.839 462.293 C 140.842 463.139,141.144 462.946,141.807 461.675 C 142.915 459.552,143.073 457.350,142.117 457.350 C 141.757 457.350,141.662 457.976,141.904 458.741 M134.059 513.733 C 133.283 514.509,133.502 516.283,134.313 515.782 C 134.719 515.531,134.880 515.050,134.672 514.712 C 134.463 514.375,134.703 513.933,135.204 513.731 C 135.708 513.528,135.765 513.338,135.330 513.306 C 134.897 513.274,134.325 513.466,134.059 513.733 M120.871 538.536 C 120.672 538.736,120.513 539.253,120.519 539.685 C 120.525 540.118,120.847 539.982,121.234 539.383 C 121.703 538.657,121.942 538.596,121.949 539.201 C 121.955 539.701,122.287 540.109,122.686 540.109 C 123.085 540.109,123.412 539.673,123.412 539.141 C 123.412 538.211,121.622 537.785,120.871 538.536 M318.512 698.911 C 318.406 724.365,318.319 703.539,318.319 652.632 C 318.319 601.724,318.406 580.898,318.512 606.352 C 318.617 631.806,318.617 673.457,318.512 698.911 M131.579 687.295 C 124.691 687.414,113.421 687.414,106.534 687.295 C 99.646 687.175,105.281 687.078,119.056 687.078 C 132.831 687.078,138.466 687.175,131.579 687.295 M131.579 995.825 C 124.691 995.944,113.421 995.944,106.534 995.825 C 99.646 995.705,105.281 995.608,119.056 995.608 C 132.831 995.608,138.466 995.705,131.579 995.825 M131.579 1280.398 C 124.691 1280.517,113.421 1280.517,106.534 1280.398 C 99.646 1280.279,105.281 1280.181,119.056 1280.181 C 132.831 1280.181,138.466 1280.279,131.579 1280.398 " stroke="none" fill="#D3E0F1" fill-rule="evenodd"></path></g></svg>