<svg id="svg" version="1.1" xmlns="http://www.w3.org/2000/svg" xmlns:xlink="http://www.w3.org/1999/xlink" width="400" height="3815.3846153846152" viewBox="0, 0, 400,3815.3846153846152"><g id="svgg"><path id="path0" d="M48.413 10.490 C 47.511 14.085,37.761 16.427,36.574 13.333 C 35.563 10.697,31.716 11.734,32.245 14.500 C 32.664 16.696,32.374 17.000,29.861 17.000 C 27.476 17.000,27.000 17.416,27.000 19.500 C 27.000 21.500,26.500 22.000,24.500 22.000 C 22.500 22.000,22.000 22.500,22.000 24.500 C 22.000 26.532,21.508 27.000,19.373 27.000 C 16.826 27.000,16.760 27.152,17.221 31.951 C 17.559 35.463,17.317 37.048,16.389 37.404 C 15.670 37.680,14.775 40.215,14.401 43.037 C 13.749 47.951,11.212 50.773,8.750 49.324 C 8.338 49.081,8.000 74.334,8.000 105.441 L 8.000 162.000 123.500 162.000 L 239.000 162.000 239.000 105.000 C 239.000 46.257,239.077 47.438,235.293 47.916 C 234.461 48.021,233.994 45.644,233.793 40.284 C 233.529 33.264,233.304 32.500,231.500 32.500 C 230.062 32.500,229.411 31.728,229.184 29.750 C 228.935 27.590,228.345 27.000,226.434 27.000 C 224.504 27.000,224.000 26.482,224.000 24.500 C 224.000 22.667,223.467 22.000,222.000 22.000 C 220.139 22.000,219.586 21.066,219.884 18.429 C 219.964 17.723,218.352 17.570,215.156 17.980 C 209.495 18.706,208.000 18.373,208.000 16.385 C 208.000 14.822,207.658 14.651,201.250 13.011 C 197.144 11.960,195.605 9.729,198.250 8.662 C 198.938 8.385,165.646 8.122,124.269 8.079 L 49.038 8.000 48.413 10.490 M210.009 9.510 C 210.544 10.156,210.781 10.886,210.534 11.132 C 210.288 11.379,210.922 11.644,211.944 11.721 C 213.125 11.810,213.717 11.276,213.567 10.257 C 213.438 9.375,212.365 8.582,211.183 8.495 C 209.643 8.382,209.311 8.669,210.009 9.510 M12.000 34.071 C 12.000 35.913,12.167 35.976,13.500 34.643 C 14.325 33.818,15.000 32.886,15.000 32.571 C 15.000 32.257,14.325 32.000,13.500 32.000 C 12.649 32.000,12.000 32.897,12.000 34.071 M232.417 35.357 C 232.070 36.261,231.159 37.000,230.393 37.000 C 228.374 37.000,228.680 34.218,230.750 33.757 C 233.022 33.252,233.170 33.394,232.417 35.357 M8.000 328.996 L 8.000 462.000 123.504 462.000 L 239.007 462.000 238.754 329.250 L 238.500 196.500 123.250 196.246 L 8.000 195.992 8.000 328.996 M8.000 1187.996 L 8.000 1885.000 12.500 1885.000 C 16.633 1885.000,17.000 1884.796,17.000 1882.500 C 17.000 1881.125,17.337 1879.966,17.750 1879.925 C 25.934 1879.105,47.337 1879.177,49.587 1880.033 L 52.477 1881.132 49.988 1883.037 C 47.504 1884.940,47.515 1884.942,57.407 1884.310 L 67.314 1883.678 66.674 1886.882 L 66.033 1890.086 79.538 1889.941 L 93.044 1889.797 92.772 1887.184 C 92.471 1884.294,94.386 1883.378,98.544 1884.422 C 100.241 1884.848,100.772 1885.523,100.383 1886.760 C 99.867 1888.403,99.917 1888.403,101.279 1886.750 C 102.319 1885.488,104.187 1885.000,107.983 1885.000 C 112.547 1885.000,113.080 1884.801,112.000 1883.500 C 111.315 1882.675,111.148 1881.993,111.628 1881.985 C 112.107 1881.976,111.825 1881.533,111.000 1881.000 C 109.880 1880.276,110.423 1880.027,113.143 1880.015 C 116.768 1880.000,118.739 1881.858,116.974 1883.628 C 116.480 1884.124,119.403 1884.462,123.748 1884.412 C 129.386 1884.348,131.514 1883.954,131.858 1882.912 C 132.242 1881.753,131.994 1881.769,130.475 1883.000 C 128.791 1884.366,128.687 1884.337,129.313 1882.668 C 129.691 1881.661,130.000 1880.648,130.000 1880.418 C 130.000 1880.188,132.034 1880.000,134.519 1880.000 C 138.777 1880.000,139.004 1880.137,138.442 1882.375 C 137.713 1885.279,141.864 1886.292,147.893 1884.683 C 151.831 1883.632,157.458 1884.449,156.538 1885.939 C 155.278 1887.978,157.304 1890.000,160.607 1890.000 C 163.391 1890.000,164.000 1890.378,164.000 1892.107 C 164.000 1893.617,164.448 1894.042,165.582 1893.607 C 166.452 1893.273,168.139 1892.993,169.332 1892.985 C 171.098 1892.972,171.222 1892.790,170.000 1892.000 C 168.667 1891.138,168.667 1891.020,170.000 1890.939 C 170.825 1890.888,172.400 1890.661,173.500 1890.433 C 174.600 1890.206,176.512 1889.917,177.750 1889.792 C 179.465 1889.618,180.000 1888.929,180.000 1886.893 C 180.000 1883.515,184.140 1882.509,191.948 1883.990 C 198.927 1885.314,198.585 1885.404,198.539 1882.250 L 198.500 1879.500 212.752 1879.324 C 227.569 1879.140,230.728 1879.940,229.351 1883.529 C 228.899 1884.705,229.809 1885.000,233.894 1885.000 L 239.001 1885.000 238.751 1188.250 L 238.500 491.500 123.250 491.246 L 8.000 490.992 8.000 1187.996 M133.397 1884.167 C 133.114 1884.625,133.809 1885.000,134.941 1885.000 C 136.073 1885.000,137.000 1884.625,137.000 1884.167 C 137.000 1883.708,136.305 1883.333,135.456 1883.333 C 134.607 1883.333,133.680 1883.708,133.397 1884.167 M214.750 1884.706 C 215.988 1884.944,218.012 1884.944,219.250 1884.706 C 220.488 1884.467,219.475 1884.272,217.000 1884.272 C 214.525 1884.272,213.512 1884.467,214.750 1884.706 M12.673 1914.750 C 11.722 1916.352,12.118 1934.000,13.105 1934.000 C 13.662 1934.000,13.865 1933.591,13.556 1933.090 C 12.683 1931.678,13.923 1929.333,15.543 1929.333 C 17.158 1929.333,17.113 1928.877,17.082 1945.141 C 17.061 1956.341,17.144 1956.804,19.280 1957.341 C 21.389 1957.872,21.406 1957.830,19.625 1956.498 C 18.324 1955.526,17.989 1954.545,18.533 1953.298 C 18.965 1952.309,19.271 1951.237,19.214 1950.917 C 19.158 1950.596,19.744 1950.333,20.517 1950.333 C 21.644 1950.333,21.923 1952.619,21.923 1961.828 C 21.923 1968.150,22.365 1973.765,22.906 1974.306 C 23.549 1974.949,23.695 1974.548,23.327 1973.144 C 22.885 1971.451,23.212 1971.000,24.883 1971.000 C 26.906 1971.000,28.073 1982.660,27.025 1992.412 C 26.833 1994.194,26.932 1994.211,28.481 1992.662 C 31.550 1989.593,32.000 1990.898,32.000 2002.861 L 32.000 2014.723 34.500 2014.245 C 36.854 2013.795,37.000 2014.018,37.000 2018.083 C 37.000 2021.274,36.707 2022.107,35.878 2021.278 C 34.397 2019.797,31.977 2020.776,32.668 2022.577 C 32.966 2023.353,33.561 2023.771,33.991 2023.505 C 35.675 2022.465,36.989 2025.966,37.122 2031.842 C 37.199 2035.229,37.638 2038.000,38.099 2038.000 C 38.560 2038.000,38.678 2037.325,38.362 2036.500 C 38.025 2035.623,38.350 2034.994,39.143 2034.985 C 40.190 2034.973,40.157 2034.748,39.000 2034.000 C 37.710 2033.167,37.740 2033.028,39.207 2033.015 C 40.614 2033.003,40.885 2033.881,40.747 2038.000 C 40.586 2042.791,39.825 2044.144,38.500 2042.000 C 38.160 2041.450,38.385 2041.000,39.000 2041.000 C 39.615 2041.000,39.816 2040.511,39.446 2039.913 C 38.968 2039.140,38.446 2039.160,37.637 2039.984 C 36.784 2040.852,37.049 2041.591,38.697 2042.938 C 40.291 2044.241,40.960 2046.000,41.132 2049.340 C 41.354 2053.610,41.539 2053.903,43.685 2053.364 L 46.000 2052.783 46.118 2065.642 C 46.184 2072.714,46.172 2078.871,46.094 2079.324 C 46.015 2079.778,46.419 2079.859,46.992 2079.505 C 47.564 2079.151,47.762 2078.423,47.430 2077.887 C 46.748 2076.783,48.741 2074.000,50.214 2074.000 C 50.757 2074.000,51.092 2076.743,50.976 2080.250 C 50.476 2095.419,50.743 2097.214,53.258 2095.567 C 55.497 2094.100,55.519 2094.133,55.811 2099.452 C 56.116 2105.028,54.842 2107.327,53.136 2104.279 C 52.594 2103.310,51.881 2102.786,51.551 2103.115 C 50.757 2103.909,52.013 2107.110,52.903 2106.560 C 54.621 2105.498,55.899 2107.964,56.119 2112.766 C 56.337 2117.552,56.495 2117.862,58.010 2116.491 C 60.138 2114.565,61.000 2115.498,61.000 2119.726 C 61.000 2122.173,60.652 2122.909,59.750 2122.367 C 58.797 2121.794,58.765 2121.959,59.614 2123.058 C 60.226 2123.851,60.745 2125.175,60.767 2126.000 C 60.975 2133.951,61.465 2138.000,62.218 2138.000 C 62.713 2138.000,62.840 2137.550,62.500 2137.000 C 62.160 2136.450,62.756 2136.000,63.824 2136.000 C 65.404 2136.000,65.715 2136.605,65.493 2139.250 C 65.342 2141.037,65.170 2143.764,65.110 2145.309 C 65.046 2146.936,64.572 2147.854,63.984 2147.490 C 63.425 2147.144,63.226 2146.443,63.543 2145.931 C 63.859 2145.419,63.593 2145.000,62.952 2145.000 C 62.254 2145.000,62.054 2144.297,62.452 2143.250 C 62.954 2141.933,62.833 2141.783,61.967 2142.643 C 61.139 2143.464,61.112 2144.341,61.872 2145.761 C 62.454 2146.848,62.608 2148.059,62.215 2148.452 C 61.822 2148.845,62.175 2149.017,63.000 2148.833 C 64.131 2148.582,64.623 2149.734,65.000 2153.519 C 65.454 2158.079,65.729 2158.536,68.000 2158.519 C 70.404 2158.501,71.458 2163.064,70.075 2167.500 C 69.904 2168.050,69.816 2171.091,69.882 2174.259 L 70.000 2180.018 122.750 2179.759 L 175.500 2179.500 175.818 2176.733 C 176.023 2174.953,176.558 2174.203,177.318 2174.630 C 178.117 2175.079,178.095 2174.858,177.250 2173.947 C 174.102 2170.555,176.046 2163.015,179.750 2164.250 C 180.162 2164.387,180.725 2159.586,181.000 2153.580 C 181.342 2146.106,181.894 2142.530,182.750 2142.247 C 183.438 2142.019,184.000 2142.519,184.000 2143.358 C 184.000 2146.877,185.594 2145.520,185.739 2141.878 C 185.939 2136.861,186.758 2134.246,188.297 2133.708 C 188.959 2133.476,188.713 2133.405,187.750 2133.550 C 185.292 2133.919,185.132 2122.547,187.582 2121.607 C 189.865 2120.731,190.007 2120.818,189.299 2122.664 C 188.838 2123.863,189.025 2124.102,189.968 2123.520 C 190.971 2122.900,191.124 2120.560,190.625 2113.470 C 189.893 2103.047,190.316 2100.983,193.079 2101.515 C 195.145 2101.913,195.367 2100.233,195.015 2086.850 C 194.855 2080.739,195.928 2079.071,198.419 2081.562 C 200.149 2083.292,200.340 2081.394,200.009 2065.750 C 199.869 2059.132,199.916 2059.000,202.433 2059.000 C 204.604 2059.000,205.000 2058.549,205.000 2056.077 C 205.000 2054.391,206.096 2051.851,207.589 2050.077 C 209.013 2048.385,209.872 2047.000,209.499 2047.000 C 209.126 2047.000,207.976 2048.012,206.944 2049.250 C 205.067 2051.499,205.067 2051.497,205.033 2045.250 C 205.003 2039.550,205.186 2039.000,207.107 2039.000 C 208.569 2039.000,209.038 2039.459,208.638 2040.500 C 208.322 2041.325,208.481 2042.000,208.993 2042.000 C 209.523 2042.000,209.844 2037.079,209.740 2030.555 C 209.544 2018.356,209.962 2016.871,213.051 2018.800 C 214.961 2019.992,214.998 2019.757,214.533 2009.522 C 213.993 1997.640,214.314 1996.008,217.053 1996.724 C 218.112 1997.001,218.731 1997.626,218.430 1998.114 C 218.128 1998.601,218.359 1999.000,218.941 1999.000 C 219.927 1999.000,220.613 1993.081,220.158 1988.500 C 219.212 1978.971,220.035 1974.954,222.512 1977.010 C 223.814 1978.090,224.000 1976.914,224.000 1967.622 C 224.000 1960.813,224.380 1957.000,225.059 1957.000 C 225.641 1957.000,225.812 1956.505,225.438 1955.900 C 224.961 1955.127,225.389 1955.138,226.879 1955.935 C 228.920 1957.027,229.000 1956.864,229.000 1951.619 C 229.000 1948.193,229.465 1945.979,230.250 1945.662 C 231.250 1945.259,231.250 1945.142,230.250 1945.079 C 229.447 1945.028,229.000 1943.391,229.000 1940.500 C 229.000 1936.130,229.513 1935.505,232.750 1935.925 C 235.397 1936.269,234.411 1915.139,231.750 1914.485 C 224.474 1912.697,191.501 1914.495,191.187 1916.698 C 190.924 1918.552,190.141 1918.943,186.187 1919.198 C 182.198 1919.455,181.452 1919.835,181.180 1921.750 C 180.955 1923.336,180.184 1924.000,178.569 1924.000 C 176.664 1924.000,176.358 1924.422,176.755 1926.500 C 177.167 1928.651,176.868 1929.000,174.617 1929.000 C 172.649 1929.000,172.000 1929.506,172.000 1931.040 C 172.000 1933.182,168.208 1939.000,166.812 1939.000 C 166.365 1939.000,166.000 1938.321,166.000 1937.490 C 166.000 1936.660,165.123 1935.230,164.051 1934.312 C 162.979 1933.394,162.331 1932.274,162.610 1931.822 C 162.890 1931.370,162.592 1931.000,161.950 1931.000 C 161.203 1931.000,160.929 1929.736,161.190 1927.500 C 161.552 1924.396,161.338 1924.000,159.299 1924.000 C 157.513 1924.000,157.000 1923.442,157.000 1921.500 C 157.000 1919.167,156.667 1919.000,152.000 1919.000 C 147.216 1919.000,146.999 1918.881,146.985 1916.250 C 146.973 1914.107,146.755 1913.831,146.000 1915.000 C 145.354 1916.000,145.026 1916.083,145.015 1915.250 C 145.004 1914.291,140.246 1914.000,124.605 1914.000 L 104.210 1914.000 101.855 1916.483 C 100.474 1917.938,98.362 1918.973,96.750 1918.983 C 94.488 1918.997,94.000 1919.444,94.000 1921.500 C 94.000 1923.373,93.473 1924.000,91.901 1924.000 C 90.747 1924.000,88.436 1925.463,86.766 1927.250 C 85.097 1929.037,83.379 1930.500,82.949 1930.500 C 82.519 1930.500,81.792 1930.910,81.333 1931.410 C 80.840 1931.949,81.073 1931.988,81.905 1931.506 C 82.849 1930.958,83.075 1931.069,82.595 1931.845 C 81.278 1933.976,75.000 1933.278,75.000 1931.000 C 75.000 1929.533,74.333 1929.000,72.500 1929.000 C 70.500 1929.000,70.000 1928.500,70.000 1926.500 C 70.000 1925.043,69.425 1924.000,68.622 1924.000 C 67.865 1924.000,66.627 1923.213,65.872 1922.250 C 64.601 1920.629,64.648 1920.610,66.500 1921.983 C 68.480 1923.451,68.481 1923.443,66.595 1921.233 C 65.547 1920.005,63.635 1919.000,62.345 1919.000 C 60.690 1919.000,60.000 1918.429,60.000 1917.059 C 60.000 1915.991,59.550 1914.840,59.000 1914.500 C 58.431 1914.149,58.000 1915.003,58.000 1916.480 C 58.000 1918.655,57.772 1918.868,56.600 1917.789 C 55.621 1916.888,55.508 1916.124,56.223 1915.250 C 57.035 1914.257,52.711 1914.000,35.181 1914.000 C 23.047 1914.000,12.918 1914.338,12.673 1914.750 M189.872 2125.750 C 189.377 2128.662,189.361 2130.972,189.839 2130.494 C 190.609 2129.725,191.206 2125.000,190.534 2125.000 C 190.240 2125.000,189.943 2125.338,189.872 2125.750 M81.200 2210.200 C 79.188 2212.212,79.698 2217.688,81.952 2218.277 C 83.026 2218.558,84.115 2218.273,84.373 2217.644 C 84.631 2217.015,84.878 2219.628,84.921 2223.450 C 84.982 2228.856,84.733 2230.133,83.800 2229.200 C 83.140 2228.540,82.240 2228.000,81.800 2228.000 C 81.360 2228.000,81.900 2228.900,83.000 2230.000 C 84.815 2231.815,85.650 2236.636,85.077 2242.000 C 84.938 2243.299,85.048 2243.305,85.892 2242.048 C 86.429 2241.249,86.672 2240.278,86.433 2239.891 C 86.193 2239.504,86.898 2239.422,87.999 2239.710 C 89.574 2240.122,90.000 2241.073,90.000 2244.176 C 90.000 2247.063,89.666 2247.917,88.750 2247.367 C 87.797 2246.794,87.765 2246.959,88.614 2248.058 C 89.226 2248.851,89.741 2250.175,89.758 2251.000 C 90.037 2264.582,90.393 2268.987,91.119 2267.842 C 91.784 2266.793,91.973 2266.864,91.985 2268.167 C 91.993 2269.083,91.438 2270.060,90.750 2270.338 C 89.970 2270.652,90.127 2270.872,91.167 2270.921 C 92.083 2270.964,93.060 2270.438,93.338 2269.750 C 93.824 2268.544,94.388 2279.331,94.061 2283.583 C 93.963 2284.859,94.495 2285.667,95.434 2285.667 C 96.681 2285.667,96.737 2285.382,95.734 2284.146 C 94.693 2282.863,94.795 2282.736,96.391 2283.336 C 97.905 2283.904,98.058 2283.775,97.157 2282.690 C 96.296 2281.652,96.380 2281.333,97.516 2281.333 C 99.192 2281.333,99.259 2282.026,99.021 2296.750 C 98.912 2303.481,99.223 2307.000,99.928 2307.000 C 100.517 2307.000,101.000 2307.477,101.000 2308.059 C 101.000 2308.641,100.474 2308.793,99.830 2308.395 C 99.005 2307.885,98.893 2308.236,99.449 2309.586 C 99.883 2310.639,100.260 2312.043,100.286 2312.706 C 100.312 2313.369,100.708 2313.680,101.167 2313.397 C 101.625 2313.114,102.000 2313.385,102.000 2314.000 C 102.000 2314.615,102.450 2314.840,103.000 2314.500 C 103.825 2313.990,104.630 2321.009,104.118 2324.250 C 104.053 2324.662,104.450 2325.000,105.000 2325.000 C 105.550 2325.000,106.000 2324.625,106.000 2324.167 C 106.000 2323.708,106.675 2323.333,107.500 2323.333 C 108.979 2323.333,109.229 2326.841,109.239 2347.734 C 109.241 2350.063,109.645 2351.720,110.137 2351.415 C 110.630 2351.111,110.799 2350.484,110.513 2350.021 C 109.685 2348.681,111.081 2346.000,112.607 2346.000 C 114.389 2346.000,114.518 2352.624,112.750 2353.338 C 111.750 2353.741,111.750 2353.858,112.750 2353.921 C 113.601 2353.975,114.000 2355.897,114.000 2359.941 C 114.000 2363.209,114.450 2366.160,115.000 2366.500 C 115.550 2366.840,116.000 2367.568,116.000 2368.118 C 116.000 2368.668,115.549 2368.839,114.997 2368.498 C 114.422 2368.143,114.126 2368.747,114.305 2369.913 C 114.749 2372.822,115.726 2373.472,117.476 2372.020 C 118.817 2370.907,119.000 2371.604,119.000 2377.819 C 119.000 2384.892,119.704 2386.415,123.000 2386.474 C 124.837 2386.506,126.957 2384.775,126.336 2383.750 C 126.086 2383.338,126.359 2383.000,126.941 2383.000 C 127.558 2383.000,128.000 2380.699,128.000 2377.481 C 128.000 2372.113,128.068 2371.979,130.466 2372.581 L 132.933 2373.200 133.216 2361.944 C 133.464 2352.114,133.722 2350.655,135.250 2350.432 C 136.213 2350.292,137.000 2350.635,137.000 2351.195 C 137.000 2351.756,136.261 2351.931,135.359 2351.584 C 133.986 2351.057,133.924 2351.204,134.981 2352.477 C 137.581 2355.610,138.142 2353.872,137.959 2343.250 C 137.857 2337.338,137.824 2331.727,137.887 2330.781 C 138.027 2328.651,140.700 2329.469,141.327 2331.835 C 141.570 2332.751,141.820 2328.201,141.884 2321.725 C 141.998 2310.132,142.039 2309.936,144.500 2309.000 C 146.956 2308.066,147.000 2307.858,147.000 2297.113 C 147.000 2285.990,148.112 2283.541,151.105 2288.070 C 151.721 2289.004,151.969 2285.853,151.817 2278.990 C 151.567 2267.643,152.108 2265.582,155.086 2266.527 C 156.903 2267.104,156.988 2266.606,156.699 2257.059 C 156.375 2246.390,156.986 2243.586,159.158 2245.758 C 160.741 2247.341,161.655 2247.338,161.708 2245.750 C 161.731 2245.063,162.007 2241.450,162.323 2237.723 C 162.638 2233.996,162.563 2231.152,162.156 2231.404 C 161.222 2231.981,160.833 2228.223,161.519 2225.250 C 161.849 2223.822,162.783 2223.000,164.078 2223.000 C 165.200 2223.000,165.840 2223.450,165.500 2224.000 C 165.160 2224.550,165.359 2225.000,165.941 2225.000 C 167.078 2225.000,167.445 2213.322,166.393 2210.582 C 165.598 2208.509,83.260 2208.140,81.200 2210.200 M165.275 2228.000 C 165.192 2229.100,165.546 2230.000,166.062 2230.000 C 166.578 2230.000,167.000 2229.100,167.000 2228.000 C 167.000 2226.900,166.646 2226.000,166.213 2226.000 C 165.780 2226.000,165.358 2226.900,165.275 2228.000 M164.923 2231.191 C 164.881 2231.361,164.704 2232.175,164.529 2233.000 C 164.354 2233.825,164.050 2235.017,163.855 2235.650 C 163.660 2236.283,163.838 2236.845,164.250 2236.900 C 164.662 2236.955,165.044 2236.662,165.099 2236.250 C 165.153 2235.838,165.604 2234.740,166.101 2233.811 C 166.663 2232.761,166.626 2231.887,166.003 2231.502 C 165.451 2231.161,164.966 2231.021,164.923 2231.191 M85.217 2246.646 C 84.973 2249.602,86.695 2252.307,88.220 2251.364 C 88.838 2250.982,88.748 2250.462,87.982 2249.989 C 87.304 2249.570,86.750 2248.051,86.750 2246.614 C 86.750 2243.197,85.500 2243.223,85.217 2246.646 M93.827 2264.577 C 94.089 2266.920,93.903 2267.255,92.891 2266.264 C 91.137 2264.548,90.643 2260.716,92.243 2261.242 C 92.934 2261.469,93.647 2262.970,93.827 2264.577 M104.000 2306.155 C 104.000 2309.247,103.960 2309.274,102.000 2307.500 C 99.540 2305.274,99.475 2304.284,101.750 2303.689 C 102.713 2303.438,103.612 2303.180,103.750 2303.116 C 103.888 2303.052,104.000 2304.420,104.000 2306.155 M105.192 2332.935 C 105.856 2334.000,106.764 2334.646,107.208 2334.372 C 107.652 2334.097,107.369 2333.226,106.579 2332.436 C 104.531 2330.388,103.772 2330.661,105.192 2332.935 M129.522 2375.820 C 129.701 2376.744,129.881 2377.668,129.923 2377.872 C 130.049 2378.482,133.000 2375.813,133.000 2375.090 C 133.000 2374.725,132.144 2374.361,131.099 2374.282 C 129.817 2374.186,129.303 2374.687,129.522 2375.820 " stroke="none" fill="#D3E0F1" fill-rule="evenodd"></path></g></svg>