<svg id="Layer_1" data-name="Layer 1" xmlns="http://www.w3.org/2000/svg" viewBox="0 0 500 500"><defs><style>.cls-1{font-size:66.51px;font-family:Sathu, Sathu;}.cls-1,.cls-3{fill:#a7a9ac;}.cls-2,.cls-4{fill:#231f20;}.cls-3{stroke:#a7a9ac;}.cls-3,.cls-4,.cls-6{stroke-linecap:round;}.cls-3,.cls-4,.cls-5,.cls-6{stroke-miterlimit:10;stroke-width:5.33px;}.cls-4,.cls-5,.cls-6{stroke:#231f20;}.cls-5,.cls-6{fill:none;}</style></defs><title>FinalLogos</title><text class="cls-1" transform="translate(123.59 428.29)">Level<tspan class="cls-2" x="168.46" y="0">Up</tspan></text><path class="cls-3" d="M296,314.72c74.12,4.44,134.49-55.18,134.49-123.23,0-65.32-55.23-123-125.58-123h0c-20.41,0-40.1,6.8-57.15,15.64,69,25.19,102.7,96.87,75.22,160.12C311.58,270.4,290.8,292.19,264.05,306v.13C277,311,281.38,313.9,296,314.72Z"/><path class="cls-4" d="M204,319.36c-74.27,0-134.49-55.17-134.49-123.23h17.8v.93c0,68.05,60.21,121.32,134.48,121.32"/><line class="cls-5" x1="204.04" y1="319.36" x2="316.39" y2="314.32"/><path class="cls-4" d="M308.09,314.69c-65.89-3.94-118.88-52.33-125-112.58H165.29l.15,1.34c7.19,62.73,64.91,110.35,133.74,110.36Z"/><path class="cls-4" d="M114.33,231.49c16.25,47.72,63.14,82.72,119.46,86.1l-8.9.26c-59.75,0-111.12-35.87-128.36-86.35Z"/><path class="cls-4" d="M272,313.55c-65.86-4-118.8-51.23-125-111.44H129.19l.14,1.34c7.2,62.73,64.92,110.35,133.76,110.36Z"/><path class="cls-4" d="M286.91,313.55c-65.86-4-118.81-51.22-125-111.44V180.85H144.11l.14,22.6c7.2,62.73,64.93,110.35,133.76,110.36Z"/><path class="cls-4" d="M172.6,283.72h0c-25.55-20.66-41.52-49.49-44.63-80.59h-.07a114.69,114.69,0,0,1,20.27-77.62H130.45c-19.12,27.61-25.46,61.07-17.61,93l.08.33c.15.6.3,1.23.46,1.76s.19.77.3,1.14a.32.32,0,0,0,.06.23,116.06,116.06,0,0,0,10.08,24.82l.07.12c.4.74.82,1.48,1.24,2.2l.16.27c.39.69.8,1.38,1.2,2.06l.25.39,1.2,1.93.3.46c.4.63.82,1.23,1.23,1.88l.31.46c.43.64.86,1.23,1.35,1.88l.28.39c.45.65.94,1.3,1.34,2a1.24,1.24,0,0,1,.17.23l1.62,2.1h0c25.2,32.48,66,51.76,109.51,51.72l8.92-.25C223.18,312.77,194.89,301.92,172.6,283.72Z"/><path class="cls-4" d="M311.51,68.66c-20.67,1.23-44.15,6.89-61.23,15.73-25.72,13.32-46,34-57.61,58.89H174.83c21.18-45.36,66-74.11,122.4-74.75Z"/><path class="cls-4" d="M195.21,109.45a133.94,133.94,0,0,1,34-25.06c17.08-8.84,40-14.35,60.62-15.59l-12.37-.27c-37.61,0-73.52,14.39-99,39.77Z"/><path class="cls-4" d="M216.44,80.38l-17.3-.33A144.38,144.38,0,0,1,256,68.53l12.38.27a167.18,167.18,0,0,0-51.73,11.5Z"/><path class="cls-6" d="M430.45,191.49c0-65.32-55.23-123-125.58-123"/><path class="cls-6" d="M296,314.72c74.12,4.44,134.49-55.18,134.49-123.23"/></svg>