<svg id="Layer_1" data-name="Layer 1" xmlns="http://www.w3.org/2000/svg" viewBox="0 0 296.01 107.09"><defs><style>.cls-1{fill:#a7a9ac;}.cls-2{fill:#231f20;}</style></defs><title>Logo13_Final_Type</title><path class="cls-1" d="M26.49,72.71V22.33h6.57V67.17H59.48v5.54Z"/><path class="cls-1" d="M89,63.36h6v.37a8.14,8.14,0,0,1-1.91,4.9,11.76,11.76,0,0,1-5.06,3.79,19.22,19.22,0,0,1-7.23,1.28q-8.31,0-12.79-5.35T63.55,54.8q0-8.36,4.75-13.86A16.45,16.45,0,0,1,88,37.21a12.55,12.55,0,0,1,5.3,5.56q2,3.78,2,10.57v2H69.5a14.5,14.5,0,0,0,3.13,9.61,10.76,10.76,0,0,0,8.72,3.76c2.64,0,4.59-.52,5.82-1.54A4.43,4.43,0,0,0,89,63.73ZM69.92,50.78H89.49v-.73a10.77,10.77,0,0,0-1.22-4.91,8.06,8.06,0,0,0-3.37-3.55,10.52,10.52,0,0,0-5-1.15,8.89,8.89,0,0,0-6.21,2.72A13.38,13.38,0,0,0,69.92,50.78Z"/><path class="cls-1" d="M114.29,72.71,99.52,36.42H106l11.59,28.45,11.9-28.45h6L120.35,72.71Z"/><path class="cls-1" d="M164.82,63.36h6v.37a8.14,8.14,0,0,1-1.91,4.9,11.76,11.76,0,0,1-5.06,3.79,19.22,19.22,0,0,1-7.23,1.28q-8.31,0-12.79-5.35T139.35,54.8q0-8.36,4.75-13.86a16.45,16.45,0,0,1,19.73-3.73,12.55,12.55,0,0,1,5.3,5.56q2,3.78,2,10.57v2H145.3a14.5,14.5,0,0,0,3.13,9.61,10.76,10.76,0,0,0,8.72,3.76c2.64,0,4.59-.52,5.82-1.54a4.42,4.42,0,0,0,1.85-3.42Zm-19.1-12.58h19.57v-.73a10.77,10.77,0,0,0-1.22-4.91,8.06,8.06,0,0,0-3.37-3.55,10.52,10.52,0,0,0-5-1.15,8.89,8.89,0,0,0-6.21,2.72A13.38,13.38,0,0,0,145.72,50.78Z"/><path class="cls-1" d="M185.39,72.71h-6V20.29h6Z"/><path class="cls-2" d="M194.21,22.33h6.58V54.7q0,7.09,1.39,9.52a8.64,8.64,0,0,0,4.3,3.68A16.35,16.35,0,0,0,213,69.16a14.26,14.26,0,0,0,6.13-1.26,8.09,8.09,0,0,0,4-4q1.31-2.74,1.3-11.51V22.33h6.06V54.12q0,8.82-2,12.4a14.52,14.52,0,0,1-5.87,5.64A20.25,20.25,0,0,1,213,74.22a28.39,28.39,0,0,1-9.87-1.65,12.65,12.65,0,0,1-6.68-5.14q-2.19-3.5-2.2-11.85Z"/><path class="cls-2" d="M244.85,86.8h-6V36.42h6v6.32a16.13,16.13,0,0,1,3.58-4.57,12.45,12.45,0,0,1,3.83-2,14.13,14.13,0,0,1,4.44-.71,13.57,13.57,0,0,1,7.57,2.25,14.46,14.46,0,0,1,5.35,6.73,25.55,25.55,0,0,1,1.91,10.08q0,8.3-4,13.75a13,13,0,0,1-11.17,5.46A14.2,14.2,0,0,1,252,73a10.42,10.42,0,0,1-3.65-2,17.76,17.76,0,0,1-3.53-4.67Zm0-32.21a17.87,17.87,0,0,0,2.66,10.13,8.56,8.56,0,0,0,7.52,4,9.13,9.13,0,0,0,7.31-3.53q2.93-3.52,2.92-10.46,0-8.14-3.08-11.33a9.52,9.52,0,0,0-7-3.19,9.17,9.17,0,0,0-5.36,1.75,10.42,10.42,0,0,0-3.7,5.17A22,22,0,0,0,244.85,54.59Z"/></svg>